<svg xmlns="http://www.w3.org/2000/svg" xmlns:xlink="http://www.w3.org/1999/xlink" viewBox="0,0,256,256" width="512px" height="512px"><defs><linearGradient x1="32" y1="25.213" x2="32" y2="36.722" gradientUnits="userSpaceOnUse" id="color-1"><stop offset="0" stop-color="#6dedff"></stop><stop offset="1" stop-color="#76e6ff"></stop></linearGradient><linearGradient x1="32" y1="7.426" x2="32" y2="53.44" gradientUnits="userSpaceOnUse" id="color-2"><stop offset="0" stop-color="#1af7ff"></stop><stop offset="1" stop-color="#22d6ff"></stop></linearGradient></defs><g fill="none" fill-rule="nonzero" stroke="none" stroke-width="1" stroke-linecap="butt" stroke-linejoin="miter" stroke-miterlimit="10" stroke-dasharray="" stroke-dashoffset="0" font-family="none" font-weight="none" font-size="none" text-anchor="none" style="mix-blend-mode: normal"><g transform="scale(4,4)"><circle cx="32" cy="32" r="6" fill="url(#color-1)"></circle><path d="M58,32c0,-3.758 -4.243,-7.017 -10.853,-8.992c0.221,-1.031 0.407,-2.045 0.524,-3.015c0.657,-5.483 -0.483,-9.323 -3.211,-10.813c-2.729,-1.489 -6.574,-0.372 -10.831,3.146c-0.544,0.449 -1.087,0.938 -1.629,1.45c-0.542,-0.513 -1.085,-1.001 -1.629,-1.45c-4.257,-3.518 -8.104,-4.634 -10.831,-3.146c-2.728,1.489 -3.868,5.329 -3.211,10.813c0.116,0.971 0.303,1.984 0.524,3.015c-6.61,1.975 -10.853,5.234 -10.853,8.992c0,3.758 4.243,7.017 10.853,8.992c-0.221,1.031 -0.407,2.045 -0.524,3.015c-0.657,5.483 0.483,9.323 3.211,10.813c0.789,0.431 1.67,0.643 2.628,0.643c2.357,0 5.177,-1.287 8.203,-3.788c0.544,-0.449 1.087,-0.938 1.629,-1.45c0.542,0.513 1.085,1.001 1.629,1.45c3.026,2.501 5.846,3.788 8.203,3.788c0.958,0 1.84,-0.213 2.628,-0.643c2.728,-1.489 3.868,-5.329 3.211,-10.813c-0.116,-0.971 -0.303,-1.984 -0.524,-3.015c6.61,-1.975 10.853,-5.234 10.853,-8.992zM34.902,13.866c3.53,-2.917 6.665,-3.987 8.599,-2.931c1.934,1.055 2.729,4.27 2.184,8.818c-0.105,0.879 -0.273,1.796 -0.469,2.729c-2.117,-0.519 -4.43,-0.915 -6.892,-1.166c-1.564,-2.275 -3.215,-4.351 -4.908,-6.132c0.494,-0.466 0.99,-0.908 1.486,-1.318zM39.899,36.313c-0.853,1.562 -1.76,3.055 -2.702,4.474c-1.651,0.138 -3.386,0.213 -5.197,0.213c-1.811,0 -3.546,-0.075 -5.198,-0.213c-0.941,-1.42 -1.849,-2.912 -2.702,-4.474c-0.784,-1.435 -1.499,-2.878 -2.142,-4.313c0.643,-1.434 1.358,-2.877 2.142,-4.313c0.853,-1.562 1.76,-3.055 2.702,-4.474c1.652,-0.138 3.387,-0.213 5.198,-0.213c1.811,0 3.546,0.075 5.198,0.213c0.941,1.42 1.849,2.912 2.702,4.474c0.784,1.435 1.499,2.878 2.142,4.313c-0.643,1.434 -1.359,2.877 -2.143,4.313zM43.078,34.487c0.68,1.739 1.238,3.444 1.676,5.096c-1.544,0.376 -3.21,0.694 -5.009,0.929c0.657,-1.05 1.3,-2.124 1.909,-3.241c0.507,-0.925 0.975,-1.855 1.424,-2.784zM32,47.403c-1.272,-1.341 -2.522,-2.863 -3.729,-4.513c1.216,0.071 2.459,0.11 3.729,0.11c1.27,0 2.513,-0.039 3.729,-0.11c-1.207,1.65 -2.457,3.172 -3.729,4.513zM24.254,40.512c-1.799,-0.235 -3.465,-0.553 -5.009,-0.929c0.438,-1.652 0.996,-3.358 1.676,-5.096c0.45,0.93 0.918,1.859 1.423,2.785c0.61,1.116 1.253,2.19 1.91,3.24zM20.922,29.513c-0.68,-1.739 -1.238,-3.445 -1.676,-5.096c1.544,-0.376 3.21,-0.694 5.009,-0.929c-0.657,1.05 -1.3,2.124 -1.909,3.241c-0.507,0.925 -0.975,1.855 -1.424,2.784zM32,16.597c1.272,1.341 2.522,2.863 3.729,4.513c-1.216,-0.071 -2.459,-0.11 -3.729,-0.11c-1.27,0 -2.513,0.039 -3.729,0.11c1.207,-1.65 2.457,-3.172 3.729,-4.513zM41.655,26.729c-0.609,-1.116 -1.252,-2.19 -1.909,-3.241c1.799,0.235 3.465,0.553 5.009,0.929c-0.438,1.652 -0.996,3.358 -1.676,5.096c-0.45,-0.929 -0.918,-1.859 -1.424,-2.784zM18.315,19.754c-0.546,-4.549 0.25,-7.764 2.184,-8.818c0.488,-0.267 1.053,-0.397 1.681,-0.397c1.86,0 4.278,1.147 6.918,3.328c0.496,0.41 0.993,0.852 1.488,1.319c-1.693,1.781 -3.345,3.856 -4.908,6.132c-2.463,0.251 -4.776,0.648 -6.892,1.166c-0.198,-0.934 -0.365,-1.851 -0.471,-2.73zM8,32c0,-2.6 3.47,-5.303 9.317,-7.06c0.606,2.279 1.437,4.654 2.471,7.06c-1.034,2.407 -1.865,4.782 -2.471,7.06c-5.847,-1.757 -9.317,-4.46 -9.317,-7.06zM29.098,50.134c-3.53,2.917 -6.662,3.989 -8.599,2.931c-1.934,-1.055 -2.729,-4.27 -2.184,-8.818c0.105,-0.879 0.273,-1.796 0.469,-2.729c2.117,0.519 4.43,0.915 6.892,1.166c1.564,2.275 3.215,4.351 4.908,6.132c-0.494,0.466 -0.99,0.908 -1.486,1.318zM45.685,44.246c0.546,4.549 -0.25,7.764 -2.184,8.818c-1.934,1.059 -5.068,-0.014 -8.599,-2.931c-0.496,-0.41 -0.993,-0.852 -1.488,-1.319c1.693,-1.781 3.345,-3.856 4.908,-6.132c2.463,-0.251 4.776,-0.648 6.892,-1.166c0.198,0.934 0.365,1.851 0.471,2.73zM46.683,39.06c-0.606,-2.279 -1.437,-4.654 -2.471,-7.06c1.034,-2.407 1.865,-4.782 2.471,-7.06c5.847,1.757 9.317,4.46 9.317,7.06c0,2.6 -3.47,5.303 -9.317,7.06z" fill="url(#color-2)"></path></g></g><g fill="#00deff" fill-rule="nonzero" stroke="none" stroke-width="1" stroke-linecap="butt" stroke-linejoin="miter" stroke-miterlimit="10" stroke-dasharray="" stroke-dashoffset="0" font-family="none" font-weight="none" font-size="none" text-anchor="none" style="mix-blend-mode: normal"><g><path d="M81.28,244.705l-3.08,-5.75h-3.34v5.75h-1.89v-14.22h4.71c1.6,0 2.83,0.36667 3.69,1.1c0.86667,0.72667 1.3,1.78667 1.3,3.18v0c0,0.88667 -0.24,1.65667 -0.72,2.31c-0.48,0.66 -1.14667,1.15333 -2,1.48v0l3.34,6.03v0.12zM74.86,232.025v5.39h2.88c0.92667,0 1.66667,-0.24 2.22,-0.72c0.54667,-0.48 0.82,-1.12333 0.82,-1.93v0c0,-0.88 -0.26,-1.55333 -0.78,-2.02c-0.52667,-0.47333 -1.28333,-0.71333 -2.27,-0.72v0zM89.4,244.905v0c-1.43333,0 -2.6,-0.47333 -3.5,-1.42c-0.9,-0.94 -1.35,-2.19667 -1.35,-3.77v0v-0.33c0,-1.04667 0.2,-1.98333 0.6,-2.81c0.4,-0.82667 0.96,-1.47 1.68,-1.93c0.72,-0.46667 1.5,-0.7 2.34,-0.7v0c1.37333,0 2.44,0.45333 3.2,1.36c0.76667,0.9 1.15,2.19333 1.15,3.88v0v0.75h-7.16c0.02667,1.04667 0.33,1.89 0.91,2.53c0.58667,0.64 1.32667,0.96 2.22,0.96v0c0.64,0 1.18333,-0.13 1.63,-0.39c0.44,-0.26 0.82667,-0.60667 1.16,-1.04v0l1.1,0.86c-0.88667,1.36667 -2.21333,2.05 -3.98,2.05zM89.17,235.425v0c-0.72667,0 -1.33667,0.26667 -1.83,0.8c-0.5,0.52667 -0.80667,1.27 -0.92,2.23v0h5.29v-0.14c-0.05333,-0.91333 -0.3,-1.62333 -0.74,-2.13c-0.44667,-0.50667 -1.04667,-0.76 -1.8,-0.76zM104.03,244.705h-1.9c-0.10667,-0.20667 -0.19,-0.57667 -0.25,-1.11v0c-0.84,0.87333 -1.84333,1.31 -3.01,1.31v0c-1.04,0 -1.89333,-0.29667 -2.56,-0.89c-0.67333,-0.58667 -1.01,-1.33333 -1.01,-2.24v0c0,-1.1 0.42,-1.95333 1.26,-2.56c0.83333,-0.61333 2.01,-0.92 3.53,-0.92v0h1.76v-0.83c0,-0.62667 -0.19,-1.13 -0.57,-1.51c-0.38,-0.37333 -0.93667,-0.56 -1.67,-0.56v0c-0.64667,0 -1.18667,0.16333 -1.62,0.49c-0.43333,0.32667 -0.65,0.72 -0.65,1.18v0h-1.82c0,-0.52667 0.18667,-1.03667 0.56,-1.53c0.37333,-0.48667 0.88,-0.87333 1.52,-1.16c0.64667,-0.28667 1.35333,-0.43 2.12,-0.43v0c1.21333,0 2.16667,0.30333 2.86,0.91c0.69333,0.60667 1.05,1.44667 1.07,2.52v0v4.86c0,0.96667 0.12667,1.73667 0.38,2.31v0zM99.13,243.325v0c0.56667,0 1.10333,-0.14667 1.61,-0.44c0.51333,-0.29333 0.88333,-0.67333 1.11,-1.14v0v-2.17h-1.42c-2.21333,0 -3.32,0.65 -3.32,1.95v0c0,0.56667 0.19,1.00667 0.57,1.32c0.37333,0.32 0.85667,0.48 1.45,0.48zM110.72,243.425v0c0.64667,0 1.21,-0.19667 1.69,-0.59c0.48667,-0.38667 0.75333,-0.87333 0.8,-1.46v0h1.71c-0.03333,0.60667 -0.24,1.18333 -0.62,1.73c-0.38667,0.54667 -0.9,0.98333 -1.54,1.31c-0.64,0.32667 -1.32,0.49 -2.04,0.49v0c-1.43333,0 -2.57667,-0.48333 -3.43,-1.45c-0.84667,-0.96 -1.27,-2.27333 -1.27,-3.94v0v-0.3c0,-1.02667 0.18667,-1.94 0.56,-2.74c0.38,-0.8 0.92333,-1.42333 1.63,-1.87c0.70667,-0.44 1.54,-0.66 2.5,-0.66v0c1.18667,0 2.17333,0.35333 2.96,1.06c0.78667,0.71333 1.20333,1.63667 1.25,2.77v0h-1.71c-0.04667,-0.68667 -0.30333,-1.25 -0.77,-1.69c-0.46667,-0.44 -1.04333,-0.66 -1.73,-0.66v0c-0.91333,0 -1.62333,0.33 -2.13,0.99c-0.50667,0.66667 -0.76,1.62333 -0.76,2.87v0v0.34c0,1.22 0.25333,2.15667 0.76,2.81c0.5,0.66 1.21333,0.99 2.14,0.99zM117.6,231.585h1.81v2.55h1.97v1.4h-1.97v6.55c0,0.42667 0.08667,0.74333 0.26,0.95c0.17333,0.21333 0.47333,0.32 0.9,0.32v0c0.20667,0 0.49333,-0.03667 0.86,-0.11v0v1.46c-0.48,0.13333 -0.94333,0.2 -1.39,0.2v0c-0.80667,0 -1.41667,-0.24667 -1.83,-0.74c-0.40667,-0.48667 -0.61,-1.18 -0.61,-2.08v0v-6.55h-1.92v-1.4h1.92zM139.65,230.485v14.22h-1.88l-7.16,-10.96v10.96h-1.89v-14.22h1.89l7.18,11.01v-11.01zM151.12,244.705h-1.9c-0.10667,-0.20667 -0.19,-0.57667 -0.25,-1.11v0c-0.84,0.87333 -1.84333,1.31 -3.01,1.31v0c-1.04,0 -1.89333,-0.29667 -2.56,-0.89c-0.67333,-0.58667 -1.01,-1.33333 -1.01,-2.24v0c0,-1.1 0.42,-1.95333 1.26,-2.56c0.83333,-0.61333 2.01,-0.92 3.53,-0.92v0h1.76v-0.83c0,-0.62667 -0.19,-1.13 -0.57,-1.51c-0.38,-0.37333 -0.93667,-0.56 -1.67,-0.56v0c-0.64667,0 -1.18667,0.16333 -1.62,0.49c-0.43333,0.32667 -0.65,0.72 -0.65,1.18v0h-1.82c0,-0.52667 0.18667,-1.03667 0.56,-1.53c0.37333,-0.48667 0.88,-0.87333 1.52,-1.16c0.64667,-0.28667 1.35333,-0.43 2.12,-0.43v0c1.21333,0 2.16667,0.30333 2.86,0.91c0.69333,0.60667 1.05,1.44667 1.07,2.52v0v4.86c0,0.96667 0.12667,1.73667 0.38,2.31v0zM146.22,243.325v0c0.56667,0 1.10333,-0.14667 1.61,-0.44c0.51333,-0.29333 0.88333,-0.67333 1.11,-1.14v0v-2.17h-1.42c-2.21333,0 -3.32,0.65 -3.32,1.95v0c0,0.56667 0.19,1.00667 0.57,1.32c0.37333,0.32 0.85667,0.48 1.45,0.48zM154.22,231.585h1.81v2.55h1.97v1.4h-1.97v6.55c0,0.42667 0.08667,0.74333 0.26,0.95c0.17333,0.21333 0.47333,0.32 0.9,0.32v0c0.20667,0 0.49333,-0.03667 0.86,-0.11v0v1.46c-0.47333,0.13333 -0.93667,0.2 -1.39,0.2v0c-0.80667,0 -1.41333,-0.24667 -1.82,-0.74c-0.41333,-0.48667 -0.62,-1.18 -0.62,-2.08v0v-6.55h-1.92v-1.4h1.92zM162.07,234.135v10.57h-1.8v-10.57zM160.12,231.335v0c0,-0.29333 0.09,-0.54 0.27,-0.74c0.18,-0.2 0.44333,-0.3 0.79,-0.3c0.35333,0 0.62,0.1 0.8,0.3c0.18667,0.2 0.28,0.44667 0.28,0.74c0,0.29333 -0.09333,0.53667 -0.28,0.73c-0.18,0.2 -0.44667,0.3 -0.8,0.3c-0.34667,0 -0.61,-0.1 -0.79,-0.3c-0.18,-0.19333 -0.27,-0.43667 -0.27,-0.73zM165.76,234.135l2.69,8.12l2.62,-8.12h1.84l-3.79,10.57h-1.37l-3.83,-10.57zM178.91,244.905v0c-1.43333,0 -2.6,-0.47333 -3.5,-1.42c-0.9,-0.94 -1.35,-2.19667 -1.35,-3.77v0v-0.33c0,-1.04667 0.2,-1.98333 0.6,-2.81c0.40667,-0.82667 0.96667,-1.47 1.68,-1.93c0.72,-0.46667 1.5,-0.7 2.34,-0.7v0c1.37333,0 2.44333,0.45333 3.21,1.36c0.76,0.9 1.14,2.19333 1.14,3.88v0v0.75h-7.16c0.02667,1.04667 0.33,1.89 0.91,2.53c0.58667,0.64 1.33,0.96 2.23,0.96v0c0.63333,0 1.17333,-0.13 1.62,-0.39c0.44,-0.26 0.82667,-0.60667 1.16,-1.04v0l1.1,0.86c-0.88667,1.36667 -2.21333,2.05 -3.98,2.05zM178.68,235.425v0c-0.72667,0 -1.33667,0.26667 -1.83,0.8c-0.49333,0.52667 -0.8,1.27 -0.92,2.23v0h5.29v-0.14c-0.05333,-0.91333 -0.3,-1.62333 -0.74,-2.13c-0.44,-0.50667 -1.04,-0.76 -1.8,-0.76z"></path></g></g></svg>