<?xml version="1.0" encoding="UTF-8"?><svg id="Layer_2" xmlns="http://www.w3.org/2000/svg" viewBox="0 0 667.9 162"><defs><style>.cls-1{fill:#0052c9;}.cls-2{fill:#ef6201;}.cls-3{fill:#fff;}.cls-4{fill:none;stroke:#ef6201;stroke-miterlimit:10;stroke-width:4.26px;}</style></defs><g id="Layer_1-2"><g><g><g><path class="cls-2" d="M501.27,112.27c7.72,0,14,4.13,16.34,11.25h-8.02c-1.64-3.33-4.63-4.98-8.37-4.98-6.08,0-10.41,4.43-10.41,11.5s4.33,11.5,10.41,11.5c3.74,0,6.72-1.64,8.37-5.03h8.02c-2.34,7.17-8.62,11.25-16.34,11.25-10.01,0-17.63-7.32-17.63-17.72s7.62-17.77,17.63-17.77Z"/><path class="cls-2" d="M543.75,118.35h-13.2v8.71h11.71v5.53h-11.71v9.21h13.2v5.67h-20.17v-34.79h20.17v5.67Z"/><path class="cls-2" d="M579.81,112.67v34.79h-6.97l-15.79-23.84v23.84h-6.97v-34.79h6.97l15.79,23.89v-23.89h6.97Z"/><path class="cls-2" d="M584.83,112.72h25.5v5.62h-9.26v29.12h-6.97v-29.12h-9.26v-5.62Z"/><path class="cls-2" d="M635.58,118.35h-13.2v8.71h11.7v5.53h-11.7v9.21h13.2v5.67h-20.17v-34.79h20.17v5.67Z"/><path class="cls-2" d="M654.95,112.72c8.37,0,12.55,4.83,12.55,10.65,0,4.23-2.34,8.51-7.92,10l8.32,14.09h-8.07l-7.67-13.54h-3.29v13.54h-6.97v-34.74h13.05Zm-.25,5.77h-5.83v10.2h5.83c3.89,0,5.63-2.04,5.63-5.18s-1.74-5.03-5.63-5.03Z"/></g><g><path class="cls-1" d="M223.73,21.6c16.89,0,26.08,12.29,26.08,27.8,0,.8,0,2.07-.11,3.1l-.23,1.84h-40.56c.92,10.69,8.73,16.32,17.58,16.32,4.94,0,8.96-1.38,12.06-3.1,1.84-.92,3.45-1.95,4.94-3.1l5.63,10.34c-1.72,1.49-3.91,2.76-6.32,4.02-4.14,2.18-10,4.14-17.35,4.14-19.42,0-31.48-14.13-31.48-30.68,0-18.04,12.18-30.68,29.76-30.68Zm11.03,24.13c-.34-8.16-5.06-12.87-11.37-12.87-7.47,0-12.75,5.06-14.13,12.87h25.51Z"/><path class="cls-1" d="M282.67,21.6c6.43,0,10.46,1.95,13.1,4.14,1.49,1.26,2.76,2.64,3.79,4.14h.23c0-.34,0-.8-.11-1.15-.11-.8-.11-1.72-.11-2.99V10.92h-9.08V0h23.55V68.13c0,1.72,.8,2.53,2.53,2.53h5.29v10.92h-13.79c-5.4,0-7.47-2.87-7.47-6.2v-.69c0-.69,.11-1.38,.23-1.95,.11-.34,.11-.57,.11-.69h-.23c-1.03,1.95-2.41,3.79-4.14,5.4-3.1,2.76-7.7,5.52-15.05,5.52-15.63,0-25.62-12.64-25.62-30.68s10.92-30.68,26.77-30.68Zm2.41,49.06c7.81,0,14.82-5.52,14.82-18.04,0-9.54-4.71-18.5-14.36-18.5-8.27,0-14.94,6.55-14.94,18.15s5.86,18.38,14.48,18.38Z"/><path class="cls-1" d="M334.14,33.89h-9.08v-10.92h23.67V58.14c0,7.01,1.84,11.83,9.19,11.83,10.11,0,16.2-10.34,16.2-20.91v-15.17h-8.96v-10.92h23.55v45.27c0,1.72,.8,2.53,2.53,2.53h5.63v10.8h-14.48c-5.17,0-7.58-2.41-7.58-6.55v-2.18c0-.8,.11-1.49,.11-1.95v-.8h-.23c-.69,1.95-6.78,12.87-21.37,12.87-11.6,0-19.19-6.32-19.19-22.29v-26.77Z"/><path class="cls-1" d="M403.31,70.66h8.5V36.42c0-1.72-.8-2.53-2.53-2.53h-6.55v-10.92h15.28c5.17,0,7.81,2.41,7.81,7.12v3.45c0,1.03,0,1.84-.11,2.64-.11,.34-.11,.69-.11,1.03h.23c2.76-8.39,9.54-15.05,18.61-15.05,.8,0,1.38,0,1.84,.11,.34,.11,.57,.11,.8,.11v14.36c-.34,0-.69,0-1.03-.11-.8-.12-1.49-.12-2.53-.12-11.83,0-17.12,10.34-17.12,21.37v12.75h8.39v10.92h-31.48v-10.92Z"/><path class="cls-1" d="M480.63,21.6c16.89,0,26.08,12.29,26.08,27.8,0,.8,0,2.07-.11,3.1l-.23,1.84h-40.56c.92,10.69,8.73,16.32,17.58,16.32,4.94,0,8.96-1.38,12.06-3.1,1.84-.92,3.45-1.95,4.94-3.1l5.63,10.34c-1.72,1.49-3.91,2.76-6.32,4.02-4.14,2.18-10,4.14-17.35,4.14-19.42,0-31.48-14.13-31.48-30.68,0-18.04,12.18-30.68,29.76-30.68Zm11.03,24.13c-.34-8.16-5.06-12.87-11.37-12.87-7.47,0-12.75,5.06-14.13,12.87h25.51Z"/><path class="cls-1" d="M512,70.66h8.5V10.92h-9.08V0h23.67V45.15h7.7l9.54-11.26h-6.78v-10.92h28.15v10.92h-7.58l-12.75,15.05v.23c.11,0,2.18,.92,4.48,4.94l8.27,14.48c1.03,1.72,2.07,2.07,4.83,2.07h3.33v10.92h-10.92c-4.94,0-6.89-.8-9.19-5.06l-10.57-18.5c-1.26-2.18-2.87-2.18-5.06-2.18h-3.45v14.82h6.32v10.92h-29.41v-10.92Z"/><path class="cls-1" d="M612.3,45.38h3.68v-1.95c0-7.47-4.71-10.11-10.8-10.11-4.48,0-8.39,1.38-11.49,2.76-1.84,.8-3.56,1.84-5.06,2.87l-5.4-10.11c1.84-1.38,3.91-2.64,6.32-3.68,4.02-1.84,9.88-3.56,16.89-3.56,15.74,0,24.13,8.04,24.13,23.09v23.44c0,1.72,.8,2.53,2.53,2.53h5.29v10.92h-13.79c-5.4,0-7.47-2.87-7.47-6.2v-.69c0-.92,.11-1.61,.23-2.18,.11-.34,.11-.57,.11-.8h-.23c-1.03,2.07-2.41,3.91-4.14,5.63-3.1,2.87-7.47,5.63-14.36,5.63-10.11,0-19.42-5.86-19.42-17.81,0-17.92,23.55-19.76,32.98-19.76Zm-9.77,26.66c7.93,0,13.56-8.5,13.56-15.86v-1.95h-2.41c-5.86,0-19.65,.92-19.65,9.77,0,4.48,3.1,8.04,8.5,8.04Z"/><path class="cls-1" d="M646.42,0h15.17l-1.26,58.02h-12.75l-1.15-58.02Zm.57,67.9h14.13v13.67h-14.13v-13.67Z"/></g><rect class="cls-2" x="194.34" y="96.17" width="277.88" height="65.83" rx="3.4" ry="3.4"/><g><path class="cls-3" d="M225.9,112.14v29.75h11.6v4.54h-17.23v-34.29h5.63Z"/><path class="cls-3" d="M261.14,116.68h-13.33v10.06h11.85v4.59h-11.85v10.51h13.33v4.59h-18.96v-34.34h18.96v4.59Z"/><path class="cls-3" d="M288.74,139.42h-14.37l-2.47,7.01h-5.87l12.29-34.34h6.52l12.29,34.34h-5.92l-2.47-7.01Zm-7.16-20.52l-5.63,15.94h11.21l-5.58-15.94Z"/><path class="cls-3" d="M314.31,112.14c8.15,0,12.14,4.69,12.14,10.26,0,4.05-2.17,8.39-7.95,9.82l8.49,14.21h-6.71l-7.9-13.71h-4.3v13.71h-5.63v-34.29h11.85Zm0,4.59h-6.22v11.49h6.22c4.39,0,6.37-2.42,6.37-5.82s-1.97-5.67-6.37-5.67Z"/><path class="cls-3" d="M361.85,112.09v34.34h-5.63l-16.93-25.6v25.6h-5.63v-34.34h5.63l16.93,25.56v-25.56h5.63Z"/><path class="cls-3" d="M369.26,112.14h5.63v34.29h-5.63v-34.29Z"/><path class="cls-3" d="M410.48,112.09v34.34h-5.63l-16.93-25.6v25.6h-5.63v-34.34h5.63l16.93,25.56v-25.56h5.63Z"/><path class="cls-3" d="M449.48,122.01h-6.76c-1.83-3.45-5.08-5.18-9.18-5.18-6.81,0-11.75,4.83-11.75,12.38s4.94,12.43,11.75,12.43c6.22,0,10.12-3.75,10.96-9.52h-12.88v-4.49h18.91v4.39c-1.04,7.94-7.75,14.7-16.98,14.7s-17.52-7.2-17.52-17.51,7.85-17.51,17.52-17.51c7.16,0,13.33,3.6,15.95,10.31Z"/></g></g><g><rect class="cls-4" x="2.13" y="2.16" width="156.97" height="156.97" rx="16.25" ry="16.25"/><g><path class="cls-2" d="M67.38,60.11c16.72,0,25.82,12.17,25.82,27.53,0,.8,0,2.05-.11,3.07l-.23,1.82H52.7c.91,10.58,8.65,16.15,17.4,16.15,4.89,0,8.87-1.37,11.94-3.07,1.82-.91,3.41-1.93,4.89-3.07l5.57,10.24c-1.71,1.48-3.87,2.73-6.26,3.98-4.1,2.16-9.9,4.1-17.18,4.1-19.22,0-31.17-13.99-31.17-30.37,0-17.86,12.06-30.37,29.46-30.37Zm10.92,23.89c-.34-8.08-5.01-12.74-11.26-12.74-7.39,0-12.63,5-13.99,12.74h25.25Z"/><path class="cls-2" d="M100.55,38.72h15.01l-1.25,57.44h-12.63l-1.14-57.44Zm.57,67.23h13.99v13.54h-13.99v-13.54Z"/></g></g></g></g></svg>